<svg xmlns="http://www.w3.org/2000/svg" version="1.1" xmlns:xlink="http://www.w3.org/1999/xlink" xmlns:svgjs="http://svgjs.dev/svgjs" viewBox="0 0 9.205231640625 9.407941322675866"><g transform="matrix(0.8571428571428571,0,0,0.8571428571428571,1.3150330915178574,7.157857539582947)"><g transform="matrix(1,0,0,1,0,0)" clip-path="url(#SvgjsClipPath18526)"><g clip-path="url(#a35b079b5-b301-4a28-b9a7-22f5eb232035dc83a03c-cc2c-4709-98f5-b5e070b51c52)"><path d=" M 4.05293612219528 -1.1708584474191372 C 5.217381383345916 -1.1708584474191372 6.161489227209794 -2.1345687235795614 6.161489227209794 -3.323327079051493 C 6.161489227209794 -4.512085434523426 5.2173813833459155 -5.475643753844341 4.05293612219528 -5.475643753844341 C 2.888490861044646 -5.475643753844341 1.9443830171807681 -4.512085434523426 1.9443830171807681 -3.3233270790514937 C 1.9443830171807681 -2.1345687235795614 2.888490861044646 -1.1708584474191372 4.05293612219528 -1.1708584474191372 Z" fill="none" transform="matrix(1,0,0,1,0,0)" fill-rule="nonzero" stroke-dasharray="none" stroke-miterlimit="10" stroke-linejoin="miter" stroke-linecap="butt" stroke-width="0.07521863555651367" stroke="#173054"></path></g><g clip-path="url(#a35b079b5-b301-4a28-b9a7-22f5eb232035dc83a03c-cc2c-4709-98f5-b5e070b51c52)"><path d=" M 4.05293612219528 -2.9666843767259627 C 4.250012999758409 -2.9666004070979817 4.409866916507897 -3.126250255017577 4.410034695039336 -3.3233270790514937 C 4.409866916507864 -3.52040390308547 4.250012999758349 -3.6800537510050377 4.05293612219522 -3.679969781377024 C 3.8558592446321525 -3.6800537510050044 3.696005327882664 -3.5204039030854095 3.6958375493512254 -3.3233270790514937 C 3.696005327882697 -3.126250255017517 3.8558592446322124 -2.966600407097949 4.052936122195341 -2.9666843767259627 Z" fill="none" transform="matrix(1,0,0,1,0,0)" fill-rule="nonzero" stroke-dasharray="none" stroke-miterlimit="10" stroke-linejoin="miter" stroke-linecap="butt" stroke-width="0.07521863555651367" stroke="#173054"></path></g><g clip-path="url(#SvgjsClipPath18524dc83a03c-cc2c-4709-98f5-b5e070b51c52)"><path d=" M 4.478577141447021 -2.8416303768867315 L 5.147491148961715 -2.268297221422639" fill="none" transform="matrix(1,0,0,1,0,0)" fill-rule="nonzero" stroke-dasharray="none" stroke-miterlimit="10" stroke-linejoin="miter" stroke-linecap="butt" stroke-width="0.07521863555651367" stroke="#173054"></path></g><g clip-path="url(#SvgjsClipPath18524dc83a03c-cc2c-4709-98f5-b5e070b51c52)"><path d=" M 4.669131494576073 -3.3234867196078 L 5.549113552167528 -3.3234867196078" fill="none" transform="matrix(1,0,0,1,0,0)" fill-rule="nonzero" stroke-dasharray="none" stroke-miterlimit="10" stroke-linejoin="miter" stroke-linecap="butt" stroke-width="0.07521863555651367" stroke="#173054"></path></g><g clip-path="url(#SvgjsClipPath18524dc83a03c-cc2c-4709-98f5-b5e070b51c52)"><path d=" M 4.035583857587799 -4.867410058028405 L 4.035583857587799 -3.9693451365354844" fill="none" transform="matrix(1,0,0,1,0,0)" fill-rule="nonzero" stroke-dasharray="none" stroke-miterlimit="10" stroke-linejoin="miter" stroke-linecap="butt" stroke-width="0.07521863555651367" stroke="#173054"></path></g><g clip-path="url(#SvgjsClipPath18524dc83a03c-cc2c-4709-98f5-b5e070b51c52)"><path d=" M 3.4718985522192067 -3.2212575002556716 L 2.5941958472203726 -3.1644256422796393" fill="none" transform="matrix(1,0,0,1,0,0)" fill-rule="nonzero" stroke-dasharray="none" stroke-miterlimit="10" stroke-linejoin="miter" stroke-linecap="butt" stroke-width="0.07521863555651367" stroke="#173054"></path></g><g clip-path="url(#b35b079b5-b301-4a28-b9a7-22f5eb232035dc83a03c-cc2c-4709-98f5-b5e070b51c52)"><path d=" M 1.900619447402433 -2.7237053903524977 C 2.0976963249655616 -2.723621420724516 2.2575502417150495 -2.883271268644112 2.2577180202464877 -3.0803480926780282 C 2.257550241715016 -3.277424916712005 2.0976963249655016 -3.4370747646315722 1.9006194474023728 -3.4369907950035583 C 1.7035425698393043 -3.4370747646315394 1.5436886530898164 -3.277424916711944 1.5435208745583782 -3.0803480926780282 C 1.5436886530898497 -2.8832712686440516 1.7035425698393645 -2.7236214207244833 1.9006194474024931 -2.7237053903524977" fill="#ececd9" transform="matrix(1,0,0,1,0,0)" fill-rule="nonzero"></path></g><g clip-path="url(#b35b079b5-b301-4a28-b9a7-22f5eb232035dc83a03c-cc2c-4709-98f5-b5e070b51c52)"><path d=" M 1.900619447402433 -2.7237053903524977 C 2.0976963249655616 -2.723621420724516 2.2575502417150495 -2.883271268644112 2.2577180202464877 -3.0803480926780282 C 2.257550241715016 -3.277424916712005 2.0976963249655016 -3.4370747646315722 1.9006194474023728 -3.4369907950035583 C 1.7035425698393043 -3.4370747646315394 1.5436886530898164 -3.277424916711944 1.5435208745583782 -3.0803480926780282 C 1.5436886530898497 -2.8832712686440516 1.7035425698393645 -2.7236214207244833 1.9006194474024931 -2.7237053903524977 Z" fill="none" transform="matrix(1,0,0,1,0,0)" fill-rule="nonzero" stroke-dasharray="none" stroke-miterlimit="10" stroke-linejoin="miter" stroke-linecap="butt" stroke-width="0.07521863555651367" stroke="#173054"></path></g><g clip-path="url(#b35b079b5-b301-4a28-b9a7-22f5eb232035dc83a03c-cc2c-4709-98f5-b5e070b51c52)"><path d=" M 5.657600347400906 -1.4425572764596346 C 5.854677224964035 -1.442473306831654 6.0145311417135225 -1.602123154751249 6.01469892024496 -1.7991999787851656 C 6.01453114171349 -1.9962768028191418 5.854677224963974 -2.15592665073871 5.657600347400845 -2.1558426811106957 C 5.460523469837778 -2.1559266507386763 5.300669553088289 -1.9962768028190814 5.300501774556851 -1.7991999787851656 C 5.300669553088323 -1.6021231547511894 5.460523469837838 -1.4424733068316211 5.657600347400966 -1.4425572764596346" fill="#ececd9" transform="matrix(1,0,0,1,0,0)" fill-rule="nonzero"></path></g><g clip-path="url(#b35b079b5-b301-4a28-b9a7-22f5eb232035dc83a03c-cc2c-4709-98f5-b5e070b51c52)"><path d=" M 5.657600347400906 -1.4425572764596346 C 5.854677224964035 -1.442473306831654 6.0145311417135225 -1.602123154751249 6.01469892024496 -1.7991999787851656 C 6.01453114171349 -1.9962768028191418 5.854677224963974 -2.15592665073871 5.657600347400845 -2.1558426811106957 C 5.460523469837778 -2.1559266507386763 5.300669553088289 -1.9962768028190814 5.300501774556851 -1.7991999787851656 C 5.300669553088323 -1.6021231547511894 5.460523469837838 -1.4424733068316211 5.657600347400966 -1.4425572764596346 Z" fill="none" transform="matrix(1,0,0,1,0,0)" fill-rule="nonzero" stroke-dasharray="none" stroke-miterlimit="10" stroke-linejoin="miter" stroke-linecap="butt" stroke-width="0.07521863555651367" stroke="#173054"></path></g><g clip-path="url(#b35b079b5-b301-4a28-b9a7-22f5eb232035dc83a03c-cc2c-4709-98f5-b5e070b51c52)"><path d=" M 6.165136191357988 -2.9666843767259627 C 6.3622130689211165 -2.9666004070979817 6.522066985670604 -3.126250255017577 6.522234764202042 -3.3233270790514937 C 6.5220669856705715 -3.52040390308547 6.362213068921056 -3.6800537510050377 6.165136191357928 -3.679969781377024 C 5.96805931379486 -3.6800537510050044 5.808205397045372 -3.5204039030854095 5.808037618513933 -3.3233270790514937 C 5.808205397045405 -3.126250255017517 5.96805931379492 -2.966600407097949 6.165136191358048 -2.9666843767259627" fill="#ececd9" transform="matrix(1,0,0,1,0,0)" fill-rule="nonzero"></path></g><g clip-path="url(#b35b079b5-b301-4a28-b9a7-22f5eb232035dc83a03c-cc2c-4709-98f5-b5e070b51c52)"><path d=" M 6.165136191357988 -2.9666843767259627 C 6.3622130689211165 -2.9666004070979817 6.522066985670604 -3.126250255017577 6.522234764202042 -3.3233270790514937 C 6.5220669856705715 -3.52040390308547 6.362213068921056 -3.6800537510050377 6.165136191357928 -3.679969781377024 C 5.96805931379486 -3.6800537510050044 5.808205397045372 -3.5204039030854095 5.808037618513933 -3.3233270790514937 C 5.808205397045405 -3.126250255017517 5.96805931379492 -2.966600407097949 6.165136191358048 -2.9666843767259627 Z" fill="none" transform="matrix(1,0,0,1,0,0)" fill-rule="nonzero" stroke-dasharray="none" stroke-miterlimit="10" stroke-linejoin="miter" stroke-linecap="butt" stroke-width="0.07521863555651367" stroke="#173054"></path></g><g clip-path="url(#b35b079b5-b301-4a28-b9a7-22f5eb232035dc83a03c-cc2c-4709-98f5-b5e070b51c52)"><path d=" M 4.059470266294129 -5.156838304556329 C 4.256547143857258 -5.1567543349283484 4.416401060606745 -5.316404182847943 4.4165688391381845 -5.513481006881859 C 4.416401060606713 -5.710557830915836 4.256547143857198 -5.8702076788354045 4.059470266294069 -5.87012370920739 C 3.8623933887310007 -5.870207678835371 3.7025394719815123 -5.710557830915776 3.702371693450074 -5.513481006881859 C 3.7025394719815456 -5.316404182847883 3.8623933887310606 -5.156754334928316 4.0594702662941895 -5.156838304556329" fill="#ececd9" transform="matrix(1,0,0,1,0,0)" fill-rule="nonzero"></path></g><g clip-path="url(#b35b079b5-b301-4a28-b9a7-22f5eb232035dc83a03c-cc2c-4709-98f5-b5e070b51c52)"><path d=" M 4.059470266294129 -5.156838304556329 C 4.256547143857258 -5.1567543349283484 4.416401060606745 -5.316404182847943 4.4165688391381845 -5.513481006881859 C 4.416401060606713 -5.710557830915836 4.256547143857198 -5.8702076788354045 4.059470266294069 -5.87012370920739 C 3.8623933887310007 -5.870207678835371 3.7025394719815123 -5.710557830915776 3.702371693450074 -5.513481006881859 C 3.7025394719815456 -5.316404182847883 3.8623933887310606 -5.156754334928316 4.0594702662941895 -5.156838304556329 Z" fill="none" transform="matrix(1,0,0,1,0,0)" fill-rule="nonzero" stroke-dasharray="none" stroke-miterlimit="10" stroke-linejoin="miter" stroke-linecap="butt" stroke-width="0.07521863555651367" stroke="#173054"></path></g><g clip-path="url(#c35b079b5-b301-4a28-b9a7-22f5eb232035dc83a03c-cc2c-4709-98f5-b5e070b51c52)"><path d=" M 5.770352322315922 -3.0801961358385195 C 5.004489851195056 -3.0801961358385195 4.3835942049649255 -2.4466880719292154 4.3835942049649255 -1.6650220894995051 C 4.3835942049649255 -0.8833561070697948 5.004489851195056 -0.24984804316049125 5.770352322315922 -0.24984804316049125 C 6.5362147934367885 -0.24984804316049125 7.157110439666919 -0.8833561070697948 7.157110439666919 -1.6650220894995051 C 7.157110439666919 -2.4466880719292154 6.5362147934367885 -3.0801961358385195 5.770352322315922 -3.0801961358385195" fill="#ececd9" transform="matrix(1,0,0,1,0,0)" fill-rule="nonzero"></path></g><g clip-path="url(#d35b079b5-b301-4a28-b9a7-22f5eb232035dc83a03c-cc2c-4709-98f5-b5e070b51c52)"><path d=" M 1.900619447402433 -4.457684885979523 C 1.1347569762815664 -4.457684885979523 0.5138613300514354 -3.824176822070219 0.5138613300514354 -3.0425108396405096 C 0.5138613300514354 -2.2609968140503076 1.1347569762815666 -1.627488750141004 1.900619447402433 -1.627488750141004 C 2.6664819185232993 -1.627488750141004 3.2873775647534305 -2.2609968140503076 3.2873775647534305 -3.0425108396405096 C 3.2873775647534305 -3.824176822070219 2.6664819185232993 -4.457684885979523 1.900619447402433 -4.457684885979523" fill="#3a868f" transform="matrix(1,0,0,1,0,0)" fill-rule="nonzero"></path></g><g clip-path="url(#e35b079b5-b301-4a28-b9a7-22f5eb232035dc83a03c-cc2c-4709-98f5-b5e070b51c52)"><path d=" M 4.05293612219528 -6.79964369647849 C 3.2870736510744143 -6.79964369647849 2.666178004844283 -6.166135632569186 2.666178004844283 -5.384469650139476 C 2.666178004844283 -4.602955624549274 3.2870736510744143 -3.9694475606399706 4.05293612219528 -3.9694475606399706 C 4.8187985933161475 -3.9694475606399706 5.439694239546278 -4.602955624549274 5.439694239546278 -5.384469650139476 C 5.439694239546278 -6.166135632569186 4.8187985933161475 -6.79964369647849 4.05293612219528 -6.79964369647849" fill="#225777" transform="matrix(1,0,0,1,0,0)" fill-rule="nonzero"></path></g></g><g><path d=" M 0.5565 1.0739999999999996 Q 0.429 1.0739999999999996 0.3375 1.0319999999999998 Q 0.246 0.9899999999999998 0.18825 0.9164999999999998 Q 0.1305 0.8429999999999997 0.10350000000000001 0.7477499999999997 Q 0.0765 0.6524999999999996 0.0765 0.5474999999999998 L 0.0765 -2.220446049250313e-16 L 0.369 -2.220446049250313e-16 L 0.369 0.5474999999999998 Q 0.369 0.5999999999999996 0.3795 0.6479999999999997 Q 0.39 0.6959999999999997 0.41250000000000003 0.7334999999999997 Q 0.435 0.7709999999999997 0.47025 0.7927499999999997 Q 0.5055000000000001 0.8144999999999998 0.5565 0.8144999999999998 Q 0.609 0.8144999999999998 0.645 0.7927499999999997 Q 0.681 0.7709999999999997 0.70275 0.7327499999999998 Q 0.7245 0.6944999999999997 0.735 0.6464999999999997 Q 0.7455 0.5984999999999997 0.7455 0.5474999999999998 L 0.7455 -2.220446049250313e-16 L 1.038 -2.220446049250313e-16 L 1.038 0.5474999999999998 Q 1.038 0.6584999999999996 1.00875 0.7544999999999997 Q 0.9795 0.8504999999999997 0.921 0.9224999999999997 Q 0.8625 0.9944999999999997 0.77175 1.0342499999999997 Q 0.681 1.0739999999999996 0.5565 1.0739999999999996 M 1.2104714355468749 1.0649999999999997 L 1.2104714355468749 -2.220446049250313e-16 L 1.669471435546875 -2.220446049250313e-16 Q 1.747471435546875 -2.220446049250313e-16 1.8134714355468748 0.03149999999999964 Q 1.8794714355468751 0.06299999999999972 1.927471435546875 0.11624999999999974 Q 1.975471435546875 0.16949999999999965 2.001721435546875 0.2354999999999997 Q 2.027971435546875 0.30149999999999966 2.027971435546875 0.36899999999999966 Q 2.027971435546875 0.4634999999999997 1.983721435546875 0.5474999999999998 Q 1.939471435546875 0.6314999999999997 1.8607214355468749 0.6847499999999997 Q 1.781971435546875 0.7379999999999998 1.676971435546875 0.7379999999999998 L 1.502971435546875 0.7379999999999998 L 1.502971435546875 1.0649999999999997 L 1.2104714355468749 1.0649999999999997 M 1.502971435546875 0.48299999999999976 L 1.657471435546875 0.48299999999999976 Q 1.675471435546875 0.48299999999999976 1.6919714355468751 0.4724999999999997 Q 1.7084714355468749 0.46199999999999974 1.7197214355468748 0.43649999999999967 Q 1.7309714355468748 0.4109999999999997 1.7309714355468748 0.36899999999999966 Q 1.7309714355468748 0.32399999999999973 1.718221435546875 0.2992499999999997 Q 1.705471435546875 0.27449999999999974 1.686721435546875 0.2647499999999997 Q 1.667971435546875 0.25499999999999967 1.6499714355468749 0.25499999999999967 L 1.502971435546875 0.25499999999999967 L 1.502971435546875 0.48299999999999976 M 2.1494501953125 1.0649999999999997 L 2.1494501953125 -2.220446049250313e-16 L 2.6384501953125 -2.220446049250313e-16 Q 2.7164501953125 -2.220446049250313e-16 2.7824501953125 0.03149999999999964 Q 2.8484501953125 0.06299999999999972 2.8964501953125 0.11624999999999974 Q 2.9444501953125 0.16949999999999965 2.9707001953125 0.2354999999999997 Q 2.9969501953125 0.30149999999999966 2.9969501953125 0.36899999999999966 Q 2.9969501953125 0.43049999999999966 2.9789501953124997 0.4874999999999997 Q 2.9609501953125 0.5444999999999998 2.9264501953125 0.5917499999999998 Q 2.8919501953125 0.6389999999999998 2.8439501953125 0.6734999999999998 L 3.0689501953125 1.0649999999999997 L 2.7479501953125 1.0649999999999997 L 2.5604501953125 0.7379999999999998 L 2.4419501953125 0.7379999999999998 L 2.4419501953125 1.0649999999999997 L 2.1494501953125 1.0649999999999997 M 2.4419501953125 0.48299999999999976 L 2.6264501953124997 0.48299999999999976 Q 2.6444501953125 0.48299999999999976 2.6609501953125 0.4694999999999997 Q 2.6774501953125 0.45599999999999974 2.6887001953125 0.43049999999999966 Q 2.6999501953125 0.4049999999999997 2.6999501953125 0.36899999999999966 Q 2.6999501953125 0.3314999999999997 2.6872001953124998 0.30674999999999975 Q 2.6744501953124997 0.2819999999999997 2.6557001953125 0.26849999999999974 Q 2.6369501953125 0.25499999999999967 2.6189501953125 0.25499999999999967 L 2.4419501953125 0.25499999999999967 L 2.4419501953125 0.48299999999999976 M 3.4124318847656245 -2.220446049250313e-16 L 3.7394318847656245 -2.220446049250313e-16 L 4.0784318847656245 1.0649999999999997 L 3.7814318847656248 1.0649999999999997 L 3.7169318847656245 0.8564999999999997 L 3.4334318847656244 0.8564999999999997 L 3.3704318847656247 1.0649999999999997 L 3.0719318847656245 1.0649999999999997 L 3.4124318847656245 -2.220446049250313e-16 M 3.6704318847656245 0.6614999999999998 L 3.5759318847656245 0.28649999999999975 L 3.4769318847656248 0.6614999999999998 L 3.6704318847656245 0.6614999999999998 M 4.463920166015625 0.5414999999999998 L 4.463920166015625 1.0649999999999997 L 4.171420166015625 1.0649999999999997 L 4.171420166015625 -2.220446049250313e-16 L 4.3994201660156245 -2.220446049250313e-16 L 4.826920166015625 0.5414999999999998 L 4.826920166015625 -2.220446049250313e-16 L 5.119420166015625 -2.220446049250313e-16 L 5.119420166015625 1.0649999999999997 L 4.886920166015625 1.0649999999999997 L 4.463920166015625 0.5414999999999998 M 5.306962646484375 1.0649999999999997 L 5.306962646484375 -2.220446049250313e-16 L 5.599462646484375 -2.220446049250313e-16 L 5.599462646484375 0.4049999999999997 L 5.923462646484375 -2.220446049250313e-16 L 6.253462646484375 -2.220446049250313e-16 L 5.866462646484375 0.47699999999999976 L 6.280462646484375 1.0649999999999997 L 5.944462646484375 1.0649999999999997 L 5.680462646484375 0.6734999999999998 L 5.599462646484375 0.7574999999999997 L 5.599462646484375 1.0649999999999997 L 5.306962646484375 1.0649999999999997 M 6.34646630859375 1.0649999999999997 L 6.34646630859375 -2.220446049250313e-16 L 6.6389663085937505 -2.220446049250313e-16 L 6.6389663085937505 1.0649999999999997 L 6.34646630859375 1.0649999999999997 M 7.655991210937501 0.25499999999999967 L 7.3499912109375005 0.25499999999999967 L 7.3499912109375005 1.0649999999999997 L 7.0574912109375 1.0649999999999997 L 7.0574912109375 0.25499999999999967 L 6.7499912109375 0.25499999999999967 L 6.7499912109375 -2.220446049250313e-16 L 7.655991210937501 -2.220446049250313e-16 L 7.655991210937501 0.25499999999999967" fill="#173054" fill-rule="nonzero"></path></g><g></g></g><defs><clipPath id="SvgjsClipPath18526"><path d=" M 0.5138613300514354 -6.7997360492383665 h 6.643303707084629 v 6.5497360492383665 h -6.643303707084629 Z"></path></clipPath><clipPath id="a35b079b5-b301-4a28-b9a7-22f5eb232035dc83a03c-cc2c-4709-98f5-b5e070b51c52"><path d=" M 0.5138613300514354 -0.25 L 7.157110439666921 -0.25 L 7.157110439666921 -6.79964369647849 L 0.5138613300514354 -6.79964369647849 Z"></path></clipPath><clipPath id="SvgjsClipPath18524dc83a03c-cc2c-4709-98f5-b5e070b51c52"><path d=" M 0.5138613300514354 -6.799736049238367 L 7.157165037136064 -6.799736049238367 L 7.157165037136064 -0.25 L 0.5138613300514354 -0.25 Z"></path></clipPath><clipPath id="b35b079b5-b301-4a28-b9a7-22f5eb232035dc83a03c-cc2c-4709-98f5-b5e070b51c52"><path d=" M 0.5138613300514354 -0.25 L 7.157110439666921 -0.25 L 7.157110439666921 -6.79964369647849 L 0.5138613300514354 -6.79964369647849 Z"></path></clipPath><clipPath id="c35b079b5-b301-4a28-b9a7-22f5eb232035dc83a03c-cc2c-4709-98f5-b5e070b51c52"><path d=" M 4.231637365456816 -3.232152975346628 L 7.3090672791750295 -3.232152975346628 L 7.3090672791750295 -0.09804316049189143 L 4.231637365456816 -0.09804316049189143 Z"></path></clipPath><clipPath id="d35b079b5-b301-4a28-b9a7-22f5eb232035dc83a03c-cc2c-4709-98f5-b5e070b51c52"><path d=" M 0.36190449054332696 -4.609641725487631 L 3.439486361101047 -4.609641725487631 L 3.439486361101047 -1.4756838674724033 L 0.36190449054332696 -1.4756838674724033 Z"></path></clipPath><clipPath id="e35b079b5-b301-4a28-b9a7-22f5eb232035dc83a03c-cc2c-4709-98f5-b5e070b51c52"><path d=" M 2.5142211653361746 -6.951600535986598 L 5.5918030358938955 -6.951600535986598 L 5.5918030358938955 -3.817490721131862 L 2.5140692084966667 -3.817490721131862 Z"></path></clipPath></defs></svg>